<?xml version="1.0" standalone="no"?>
<!DOCTYPE svg PUBLIC "-//W3C//DTD SVG 20010904//EN"
 "http://www.w3.org/TR/2001/REC-SVG-20010904/DTD/svg10.dtd">
<svg version="1.0" xmlns="http://www.w3.org/2000/svg"
 width="105.000000pt" height="105.000000pt" viewBox="0 0 105.000000 105.000000"
 preserveAspectRatio="xMidYMid meet">
<metadata>
Created by potrace 1.14, written by Peter Selinger 2001-2017
</metadata>
<g transform="translate(0.000000,105.000000) scale(0.100000,-0.100000)"
fill="#000000" stroke="none">
<path d="M0 525 l0 -525 525 0 525 0 0 525 0 525 -525 0 -525 0 0 -525z m377
473 c109 -51 164 -195 118 -306 -24 -56 -91 -119 -148 -138 -159 -53 -316 61
-317 229 0 68 16 110 60 161 73 83 183 104 287 54z m-35 -500 c51 -15 126 -82
149 -133 40 -86 19 -195 -51 -266 -43 -45 -117 -79 -170 -79 -43 0 -125 34
-162 68 -54 49 -78 102 -78 177 0 165 154 280 312 233z m522 0 c55 -16 138
-99 154 -154 40 -137 -32 -271 -166 -310 -151 -44 -304 73 -305 233 0 166 154
279 317 231z"/>
<path d="M195 951 c-181 -82 -124 -351 74 -351 59 0 94 15 132 57 40 42 49 66
49 128 0 84 -35 137 -112 170 -49 20 -94 19 -143 -4z"/>
<path d="M173 423 c-96 -62 -117 -189 -46 -274 32 -38 95 -68 141 -69 65 0
138 44 169 103 19 37 19 127 0 164 -52 98 -175 134 -264 76z"/>
<path d="M693 425 c-83 -50 -114 -152 -71 -234 50 -96 148 -134 240 -93 63 28
100 79 106 147 6 71 -2 97 -40 141 -61 69 -158 85 -235 39z"/>
</g>
</svg>
